<svg xmlns="http://www.w3.org/2000/svg" viewBox="0 0 256 256" role="img" aria-label="Chemistry Science and Lab logo">
  <defs>
    <linearGradient id="warm" x1="42" x2="214" y1="38" y2="218" gradientUnits="userSpaceOnUse">
      <stop offset="0" stop-color="#d9f4ff"/>
      <stop offset="0.52" stop-color="#ffe8b6"/>
      <stop offset="1" stop-color="#ffc49e"/>
    </linearGradient>
    <linearGradient id="glass" x1="74" x2="158" y1="66" y2="190" gradientUnits="userSpaceOnUse">
      <stop offset="0" stop-color="#f7fcff"/>
      <stop offset="0.58" stop-color="#bfe9f8"/>
      <stop offset="1" stop-color="#ffe6b9"/>
    </linearGradient>
    <filter id="softShadow" x="-20%" y="-20%" width="140%" height="140%">
      <feDropShadow dx="0" dy="4" stdDeviation="4" flood-color="#0b1720" flood-opacity="0.22"/>
    </filter>
  </defs>

  <rect width="256" height="256" rx="40" fill="#0d1117"/>

  <g fill="none" stroke-linecap="round" stroke-linejoin="round">
    <ellipse cx="132" cy="112" rx="96" ry="34" stroke="#ffd88f" stroke-width="5" transform="rotate(-18 132 112)"/>
    <ellipse cx="132" cy="112" rx="96" ry="34" stroke="#c5e8f5" stroke-width="5" transform="rotate(24 132 112)"/>
    <path d="M38 144c32-48 74-75 126-82 32-4 54 0 68 13" stroke="#ffe2a3" stroke-width="4"/>
  </g>

  <g filter="url(#softShadow)">
    <path d="M110 73h41M119 82v42l-33 67c-5 10 2 22 14 22h62c12 0 19-12 14-22l-33-67V82"
          fill="rgba(255,255,255,0.12)" stroke="#f7fcff" stroke-width="8" stroke-linecap="round" stroke-linejoin="round"/>
    <path d="M96 175c20 11 49 11 69 0l11 23c3 7-2 15-10 15h-70c-8 0-13-8-10-15l10-23Z"
          fill="url(#glass)" stroke="#111827" stroke-opacity="0.22" stroke-width="2"/>
    <path d="M105 164c18 8 42 8 58 0" stroke="#ffbd8c" stroke-width="5" fill="none"/>

    <path d="M165 109h29M171 118v72c0 12 8 22 18 22s18-10 18-22v-72"
          fill="#ffc49e" fill-opacity="0.72" stroke="#ffe7d8" stroke-width="7" stroke-linecap="round" stroke-linejoin="round"/>
    <path d="M175 145h26" stroke="#111827" stroke-opacity="0.22" stroke-width="4"/>
    <path d="M175 165h26" stroke="#111827" stroke-opacity="0.22" stroke-width="4"/>
  </g>

  <g fill="#ffffff" stroke="#111827" stroke-opacity="0.24" stroke-width="2">
    <circle cx="127" cy="80" r="8" fill="#c7edfb"/>
    <circle cx="141" cy="58" r="11" fill="#d9f4ff"/>
    <circle cx="124" cy="48" r="4" fill="#d9f4ff"/>
    <circle cx="119" cy="154" r="5" fill="#ffffff"/>
    <circle cx="136" cy="164" r="4" fill="#ffffff"/>
    <circle cx="151" cy="186" r="5" fill="#ffffff"/>
    <circle cx="112" cy="192" r="4" fill="#ffffff"/>
    <circle cx="188" cy="179" r="5" fill="#fff5df"/>
    <circle cx="190" cy="153" r="4" fill="#fff5df"/>
  </g>

  <g fill="none" stroke="#fff7c8" stroke-linecap="round" stroke-linejoin="round">
    <path d="M66 91l22-12 22 12v25l-22 12-22-12Z" stroke-width="4"/>
    <path d="M88 79v49M66 91l44 25M110 91l-44 25" stroke-width="3" opacity="0.75"/>
    <circle cx="66" cy="91" r="6" fill="#f7fcff"/>
    <circle cx="110" cy="91" r="6" fill="#f7fcff"/>
    <circle cx="88" cy="128" r="6" fill="#f7fcff"/>
  </g>

  <g fill="#ffe18a">
    <path d="M203 52l7 17 17 7-17 7-7 17-7-17-17-7 17-7Z"/>
    <path d="M58 61l4 10 10 4-10 4-4 10-4-10-10-4 10-4Z"/>
    <path d="M199 196l4 9 9 4-9 4-4 9-4-9-9-4 9-4Z"/>
    <circle cx="219" cy="128" r="3"/>
    <circle cx="52" cy="188" r="3"/>
  </g>

  <path d="M65 224c41 12 92 12 132 0" fill="none" stroke="url(#warm)" stroke-width="5" stroke-linecap="round"/>
</svg>
